<svg width="76" height="76" viewBox="0 0 76 76" fill="none" xmlns="http://www.w3.org/2000/svg">
<path d="M12.0728 15.8686C15.7751 11.2954 20.469 7.54582 25.8308 4.87854C31.1925 2.21125 37.0945 0.689707 43.1297 0.418853C49.1648 0.147999 55.1895 1.13428 60.7881 3.30967C66.3868 5.48506 71.4261 8.79778 75.5587 13.0194L61.7662 25.4066C59.5041 23.0957 56.7455 21.2823 53.6808 20.0915C50.6161 18.9007 47.3182 18.3608 44.0146 18.5091C40.7109 18.6574 37.4802 19.4902 34.5452 20.9503C31.6102 22.4104 29.0407 24.4629 27.014 26.9663L12.0728 15.8686Z" fill="white"/>
<path d="M75.6251 61.2767C71.7499 65.7165 66.9153 69.2983 61.4548 71.7751C55.9944 74.2519 50.038 75.5647 43.9965 75.623C37.9551 75.6812 31.9723 74.4836 26.4609 72.1126C20.9495 69.7417 16.0406 66.2538 12.0728 61.8897L26.3311 49.9962C28.5031 52.3851 31.1902 54.2944 34.2072 55.5922C37.2241 56.8901 40.4991 57.5457 43.8062 57.5138C47.1132 57.4819 50.3738 56.7633 53.3628 55.4075C56.3519 54.0517 58.9983 52.091 61.1196 49.6607L75.6251 61.2767Z" fill="white"/>
<path d="M34.728 38.7646L11.8262 56.7837L11.8262 20.7454L34.728 38.7646Z" fill="#99E39E"/>
<path d="M23.2764 38.7646L0.37452 56.7837L0.374521 20.7454L23.2764 38.7646Z" fill="#99E39E"/>
</svg>
